<svg xmlns="http://www.w3.org/2000/svg" xmlns:xlink="http://www.w3.org/1999/xlink" version="1.1" id="Layer_1" x="0px" y="0px" viewBox="0 0 800 800" style="enable-background:new 0 0 800 800;" xml:space="preserve">
<style type="text/css">
	.st0{opacity:9.000000e-002;fill:#756567;}
	.st1{opacity:0.3;fill:#e9afb7;}
	.st2{fill:#756567;}
	.st3{fill:#1d1718;}
	.st4{fill:#FFBE55;}
	.st5{fill:#832733;}
	.st6{fill:#FCD2B1;}
	.st7{fill:#F4C6A4;}
	.st8{fill:#FFFFFF;}
	.st9{fill:#BBBCBC;}
	.st10{fill:#878787;}
	.st11{fill:#F7F7F7;}
	.st12{fill:#303030;}
	.st13{fill:#f1d3d7;}
	.st14{fill:#91404b;}
	.st15{clip-path:url(#XMLID_8_);fill:#FFBE55;}
</style>
<path id="XMLID_237_" class="st0" d="M197.1,622.2c-12.4-9.7-20.5-24-22.5-39.6c-7-52.5,5.2-169.3,115.6-267.1  c134-118.7,274-110.5,341.8-80.7c74.7,32.8,122.1,142.8,129.8,240.8c5.8,73.7-36.3,137.1-107.5,157.1  C534.8,666.2,287,692.7,197.1,622.2z"/>
<path id="XMLID_521_" class="st1" d="M635.8,543c12.9-10.1,21.3-24.9,23.4-41.2c7.2-54.6-5.4-176-120.2-277.7  c-139.4-123.4-284.9-114.9-355.4-83.9c-77.7,34.1-127,148.5-134.9,250.4c-6,76.6,37.7,142.6,111.8,163.3  C284.6,588.9,542.3,616.3,635.8,543z"/>
<g id="XMLID_36_">
	<path id="XMLID_130_" class="st2" d="M608.2,449.6H187.9c-8.8,0-16-7.2-16-16V180.4c0-8.8,7.2-16,16-16h420.3c8.8,0,16,7.2,16,16   v253.2C624.2,442.4,617,449.6,608.2,449.6z"/>
</g>
<g id="XMLID_62_">
	<path id="XMLID_129_" class="st3" d="M624.2,215.6H171.9v-35.1c0-8.8,7.2-16,16-16h420.3c8.8,0,16,7.2,16,16V215.6z"/>
</g>
<g id="XMLID_90_">
	<g id="XMLID_85_">
		<path id="XMLID_127_" class="st4" d="M237.3,247h-38.2c-1.8,0-3.3-1.7-3.3-3.5s1.5-3.5,3.3-3.5h38.2c1.8,0,3.3,1.7,3.3,3.5    S239.2,247,237.3,247z"/>
	</g>
	<g id="XMLID_91_">
		<path id="XMLID_126_" class="st4" d="M250.6,263h-51.5c-1.8,0-3.3-0.7-3.3-2.5s1.5-2.5,3.3-2.5h51.5c1.8,0,3.3,0.7,3.3,2.5    S252.5,263,250.6,263z"/>
	</g>
	<g id="XMLID_100_">
		<path id="XMLID_125_" class="st4" d="M250.6,330h-51.5c-1.8,0-3.3-1.7-3.3-3.5s1.5-3.5,3.3-3.5h51.5c1.8,0,3.3,1.7,3.3,3.5    S252.5,330,250.6,330z"/>
	</g>
	<g id="XMLID_101_">
		<path id="XMLID_124_" class="st4" d="M232.3,346h-33.3c-1.8,0-3.3-0.7-3.3-2.5s1.5-2.5,3.3-2.5h33.3c1.8,0,3.3,0.7,3.3,2.5    S234.2,346,232.3,346z"/>
	</g>
	<g id="XMLID_106_">
		<path id="XMLID_123_" class="st4" d="M232.3,397h-33.3c-1.8,0-3.3-1.7-3.3-3.5s1.5-3.5,3.3-3.5h33.3c1.8,0,3.3,1.7,3.3,3.5    S234.2,397,232.3,397z"/>
	</g>
	<g id="XMLID_107_">
		<path id="XMLID_122_" class="st4" d="M232.3,413h-33.3c-1.8,0-3.3-1.2-3.3-3s1.5-3,3.3-3h33.3c1.8,0,3.3,1.2,3.3,3    S234.2,413,232.3,413z"/>
	</g>
	<g id="XMLID_92_">
		<path id="XMLID_121_" class="st3" d="M283.9,281h-51.5c-1.8,0-3.3-1.7-3.3-3.5s1.5-3.5,3.3-3.5h51.5c1.8,0,3.3,1.7,3.3,3.5    S285.7,281,283.9,281z"/>
	</g>
	<g id="XMLID_96_">
		<path id="XMLID_120_" class="st3" d="M352.1,281h-51.5c-1.8,0-3.3-1.7-3.3-3.5s1.5-3.5,3.3-3.5h51.5c1.8,0,3.3,1.7,3.3,3.5    S353.9,281,352.1,281z"/>
	</g>
	<g id="XMLID_97_">
		<path id="XMLID_119_" class="st3" d="M498.4,281h-51.5c-1.8,0-3.3-1.7-3.3-3.5s1.5-3.5,3.3-3.5h51.5c1.8,0,3.3,1.7,3.3,3.5    S500.2,281,498.4,281z"/>
	</g>
	<g id="XMLID_98_">
		<path id="XMLID_118_" class="st3" d="M563.2,281h-51.5c-1.8,0-3.3-1.7-3.3-3.5s1.5-3.5,3.3-3.5h51.5c1.8,0,3.3,1.7,3.3,3.5    S565.1,281,563.2,281z"/>
	</g>
	<g id="XMLID_99_">
		<path id="XMLID_117_" class="st3" d="M493.4,297h-51.5c-1.8,0-3.3-1.2-3.3-3s1.5-3,3.3-3h51.5c1.8,0,3.3,1.2,3.3,3    S495.2,297,493.4,297z"/>
	</g>
	<g id="XMLID_104_">
		<path id="XMLID_116_" class="st3" d="M493.4,362h-51.5c-1.8,0-3.3-1.7-3.3-3.5s1.5-3.5,3.3-3.5h51.5c1.8,0,3.3,1.7,3.3,3.5    S495.2,362,493.4,362z"/>
	</g>
	<g id="XMLID_105_">
		<path id="XMLID_115_" class="st3" d="M531.6,378h-51.5c-1.8,0-3.3-0.7-3.3-2.5s1.5-2.5,3.3-2.5h51.5c1.8,0,3.3,0.7,3.3,2.5    S533.5,378,531.6,378z"/>
	</g>
	<g id="XMLID_93_">
		<path id="XMLID_114_" class="st3" d="M277.2,297h-44.9c-1.8,0-3.3-1.2-3.3-3s1.5-3,3.3-3h44.9c1.8,0,3.3,1.2,3.3,3    S279.1,297,277.2,297z"/>
	</g>
	<g id="XMLID_95_">
		<path id="XMLID_113_" class="st3" d="M333.8,297h-44.9c-1.8,0-3.3-1.2-3.3-3s1.5-3,3.3-3h44.9c1.8,0,3.3,1.2,3.3,3    S335.6,297,333.8,297z"/>
	</g>
	<g id="XMLID_94_">
		<path id="XMLID_112_" class="st3" d="M363.7,314H232.3c-1.8,0-3.3-1.7-3.3-3.5s1.5-3.5,3.3-3.5h131.4c1.8,0,3.3,1.7,3.3,3.5    S365.5,314,363.7,314z"/>
	</g>
	<g id="XMLID_103_">
		<path id="XMLID_111_" class="st3" d="M345.4,362H232.3c-1.8,0-3.3-1.7-3.3-3.5s1.5-3.5,3.3-3.5h113.1c1.8,0,3.3,1.7,3.3,3.5    S347.2,362,345.4,362z"/>
	</g>
	<g id="XMLID_102_">
		<path id="XMLID_110_" class="st3" d="M363.7,378H232.3c-1.8,0-3.3-0.7-3.3-2.5s1.5-2.5,3.3-2.5h131.4c1.8,0,3.3,0.7,3.3,2.5    S365.5,378,363.7,378z"/>
	</g>
</g>
<path id="XMLID_35_" class="st5" d="M357,305.8c0,0-24-21.8-12.2-45c2-4,2.8-8.4,2.7-12.8c-0.1-3.9,1-8.9,5.7-13.4  c9.3-9,21.3-16.7,39.1-16.1s31.5,6,38.3,0c5.9-5.1,7.3-1.8,6.4,7.3c-0.3,3,0.6,5.9,2.4,8.2c2.5,3.1,5.5,8.1,5.6,14.4  c0.1,4,0.9,7.9,2.5,11.5c3.8,8.5,7.6,25.9-9.8,47.1"/>
<g id="XMLID_52_">
	<defs>
		<path id="XMLID_17_" d="M323.3,511.4c0.5-9.1,0.4-18.2,0-27.3c-1.7-33.2-0.4-54.1-0.4-68.6c0-8.7,5.6-37,19.6-38.6    c15.3-1.8,37.7-6.1,72.7-4c47.5,2.8,50.6,13.6,50.4,44.2c-0.1,11.4,3,160.3,3,160.3c-50.4,19.3-144.2,2-144.2,2    C328.3,571.9,321.3,547.1,323.3,511.4z"/>
	</defs>
	<use xlink:href="#XMLID_17_" style="overflow:visible;fill:#FFBE55;"/>
	<clipPath id="XMLID_7_">
		<use xlink:href="#XMLID_17_" style="overflow:visible;"/>
	</clipPath>
</g>
<g id="XMLID_49_">
	<path id="XMLID_33_" class="st6" d="M493.1,445.4c0,0,21.8,49.6,17.1,79.4c-3.2,20.3-50.2,36.5-64.1,33.1   c-13.9-3.4-12.3-6.5,0.5-12.9c12.8-6.4,39.7-14.9,30.1-38.9c-9.5-24-25.8-73.3-25.8-73.3L493.1,445.4z"/>
	<path id="XMLID_32_" class="st4" d="M447.1,377.6c0,0,17.7,0.7,31.6,17.3c4.1,4.9,5.6,12.7,9.1,20.5c2.6,5.8,1.1,12,2.9,19.6   c0,0,9.1,22,9.1,24.5c0,0-35,5.9-41.1,9.8C452.6,473.1,434.1,377.4,447.1,377.6z"/>
</g>
<g id="XMLID_46_">
	<path id="XMLID_31_" class="st6" d="M299.8,441.8c0,0-23.7,54.5-19,84.3c3.2,20.3,46.4,36.6,60.3,33.2c13.9-3.4,17.4-8.4,4.6-14.8   c-12.8-6.4-43.9-19.9-34.4-44c9.5-24,28-67.8,28-67.8L299.8,441.8z"/>
	<path id="XMLID_30_" class="st4" d="M340.9,377.6c0,0-18.5,1-29.6,9.4c-6.3,4.8-7.7,12.4-8.4,22.4c-0.7,10.8-6.1,19.6-9.1,30.8   c-1.7,6.1-4,18.6-4,20c0,0,28.6,1.8,40.1,5.3C336.9,467.7,353.9,377.4,340.9,377.6z"/>
</g>
<g id="XMLID_37_">
	<g id="XMLID_43_">
		<g id="XMLID_58_">
			<path id="XMLID_60_" class="st6" d="M414.9,375.4v-41.5h-42.7l0,40.2c0,0,1.3,27,22.7,27.3C411.5,401.7,414.9,375.4,414.9,375.4z     "/>
			<path id="XMLID_59_" class="st7" d="M414.9,354.9c0,0-4.4,12.7-20.1,12.7c-10.3,0-22.5-11.5-22.5-15.3l-0.1-12.6l42.7,2.3V354.9z     "/>
		</g>
	</g>
	
		<ellipse id="XMLID_24_" transform="matrix(-0.9246 0.3809 -0.3809 -0.9246 800.6451 458.0132)" class="st6" cx="355" cy="308.2" rx="10.4" ry="13.4"/>
	
		<ellipse id="XMLID_23_" transform="matrix(-0.9026 -0.4305 0.4305 -0.9026 701.6364 775.2216)" class="st6" cx="438.5" cy="308.2" rx="10.4" ry="13.4"/>
	<path id="XMLID_22_" class="st8" d="M412.5,332.1c-5.4,3.6-17.9,7-31.7,1c-1.1-0.5-2.1,0.7-1.7,1.8c1.8,5.9,7.3,12.9,19.5,12.7   c10.4-0.2,14.5-8.9,15.9-13.5C414.8,332.9,413.5,331.4,412.5,332.1z"/>
</g>
<rect id="XMLID_2_" x="319.5" y="462.8" class="st9" width="150.9" height="103.9"/>
<rect id="XMLID_20_" x="316.9" y="566.7" class="st10" width="156.2" height="5.4"/>
<rect id="XMLID_21_" x="196.2" y="572" class="st5" width="406.8" height="17.5"/>
<g id="XMLID_40_">
	<g id="XMLID_39_">
		
			<rect id="XMLID_156_" x="402.5" y="484.7" transform="matrix(-0.9943 0.1063 -0.1063 -0.9943 903.984 968.1922)" class="st4" width="47.3" height="46.9"/>
		<path id="XMLID_153_" class="st11" d="M446.6,483.2l4.8,45.2l-45.6,4.9L401,488L446.6,483.2 M447.9,481.6l-1.4,0.2l-45.6,4.9    l-1.4,0.2l0.2,1.4l4.8,45.2l0.2,1.4l1.4-0.2l45.6-4.9l1.4-0.2l-0.2-1.4L448,483L447.9,481.6L447.9,481.6z"/>
	</g>
	<path id="XMLID_88_" class="st12" d="M444.1,507.6c-1.1,0.9-2.1,1.7-3.1,2.5c-0.2-0.2-0.4-0.5-0.6-0.7c-0.7-0.8-1.7-1-2.7-0.8   c-0.7,0.2-1.2,0.6-1.4,1.4c-0.2,0.8,0.1,1.5,0.7,1.9c0.6,0.4,1.3,0.6,1.9,0.9c1.5,0.6,3,1,4.4,1.7c2.5,1.3,3.7,3.7,3.3,6.5   c-0.2,1.6-1.1,3-2.5,3.8c-3.2,1.9-6.5,2-9.8,0.2c-1-0.6-1.8-1.4-2.5-2.5c1.1-0.8,2.2-1.6,3.3-2.4c0.3,0.3,0.6,0.6,0.8,0.9   c1.4,1.3,3.3,1.7,4.9,0.9c0.8-0.3,1.3-0.9,1.3-1.8c0-0.9-0.4-1.5-1.2-1.9c-1.1-0.4-2.2-0.8-3.4-1.2c-0.9-0.4-1.9-0.7-2.8-1.2   c-2.3-1.3-3.4-3.8-2.9-6.3c0.4-2.3,2.2-4.1,4.8-4.6c2.8-0.5,5.2-0.1,7.1,2.3C443.9,507.3,443.9,507.4,444.1,507.6z"/>
	<path id="XMLID_87_" class="st12" d="M420.1,522c0.4,0.4,0.6,0.8,0.9,1.1c0.7,0.7,1.5,0.9,2.5,0.7c0.9-0.2,1.4-0.7,1.5-1.7   c0-0.4,0-0.9,0-1.3c-0.5-4.5-0.9-9-1.5-13.5c-0.1-0.7,0.1-0.9,0.8-1c0.9,0,1.8-0.1,2.7-0.3c0.6-0.1,0.8,0.1,0.9,0.7   c0.4,4.4,0.9,8.7,1.4,13.1c0,0.5,0.1,0.9,0.1,1.4c0.2,3.6-1.4,5.7-4.9,6.5c-2.9,0.7-5.7-0.3-7.4-2.6c-0.3-0.5-0.3-0.7,0.2-1   C418.2,523.5,419.1,522.8,420.1,522z"/>
</g>
<g id="XMLID_4_">
	<g id="XMLID_84_">
		<circle id="XMLID_128_" class="st13" cx="203.2" cy="192" r="9.7"/>
	</g>
	<g id="XMLID_86_">
		<circle id="XMLID_109_" class="st13" cx="233.6" cy="192" r="9.7"/>
	</g>
	<circle id="XMLID_89_" class="st13" cx="263.9" cy="191.8" r="8.5"/>
</g>
<polygon id="XMLID_131_" class="st2" points="571.8,572 536.4,572 532,505.4 576.1,505.4 "/>
<polygon id="XMLID_42_" class="st3" points="574.7,502.2 533.4,502.2 534.9,494.6 573.3,494.6 "/>
<polygon id="XMLID_38_" class="st14" points="578.4,508.2 529.8,508.2 531.2,500.5 576.9,500.5 "/>
<g id="XMLID_151_">
	<defs>
		<polygon id="XMLID_135_" points="571.8,571.6 536.4,571.6 532,505 576.1,505   "/>
	</defs>
	<clipPath id="XMLID_8_">
		<use xlink:href="#XMLID_135_" style="overflow:visible;"/>
	</clipPath>
	<rect id="XMLID_44_" x="528.8" y="523.7" class="st15" width="50.7" height="25.4"/>
</g>
<ellipse id="XMLID_1_" class="st6" cx="395.9" cy="302.7" rx="42.3" ry="61.3"/>
<ellipse id="XMLID_3_" class="st5" cx="396.1" cy="256" rx="47.4" ry="22.5"/>
<path id="XMLID_5_" class="st4" d="M476.8,423.5"/>
</svg>