<?xml version="1.0" encoding="iso-8859-1"?>
<!-- Uploaded to: SVG Repo, www.svgrepo.com, Generator: SVG Repo Mixer Tools -->
<svg height="800px" width="800px" version="1.1" id="Layer_1" xmlns="http://www.w3.org/2000/svg" xmlns:xlink="http://www.w3.org/1999/xlink" 
	 viewBox="0 0 297 297" xml:space="preserve">
<g>
	<g>
		<g>
			<circle style="fill:#db6d7c;" cx="148.5" cy="148.5" r="148.5"/>
		</g>
	</g>
	<path style="fill:#c75060;" d="M212.757,65.72l-67.211,136.057c2.998,4.695,4.812,10.252,5.076,16.143
		c0.09,2.004-0.063,3.97-0.428,5.878c0.444,1.931,0.719,3.922,0.81,5.954c0.724,16.175-14.284,29.951-29.951,29.951
		c-1.36,0-2.688-0.099-3.987-0.273l-1.882,3.81l33.785,33.754c81.316-0.252,147.238-65.858,148.013-147.05L212.757,65.72z"/>
	<g>
		<path style="fill:#ECF0F1;" d="M222,110.265c0-12.958-3.358-28.876-9.243-44.545H84.243C78.358,81.389,75,97.308,75,110.265
			c0,38.202,29.147,69.587,66.414,73.153v67.691h-21.257c-3.913,0-7.086,3.172-7.086,7.086c0,3.913,3.172,7.086,7.086,7.086h21.257
			h14.171h21.257c3.913,0,7.086-3.172,7.086-7.086c0-3.913-3.172-7.086-7.086-7.086h-21.257v-67.691
			C192.853,179.852,222,148.467,222,110.265z"/>
	</g>
	<g>
		<path style="fill:#DEE1E2;" d="M222,110.265c0-12.958-3.358-28.876-9.243-44.545h-64.59v199.56h7.419h21.257
			c3.913,0,7.085-3.172,7.085-7.086s-3.172-7.086-7.085-7.086h-21.257v-67.691C192.853,179.852,222,148.467,222,110.265z"/>
	</g>
	<g>
		<path style="fill:#832733;" d="M87.162,112.661c0,33.876,27.462,61.338,61.338,61.338s61.338-27.462,61.338-61.338
			C209.838,112.661,87.162,112.661,87.162,112.661z"/>
	</g>
	<g>
		<path style="fill:#a1303f;" d="M148.167,112.661v61.33c0.112,0.001,0.221,0.008,0.333,0.008c33.876,0,61.338-27.462,61.338-61.338
			C209.838,112.661,148.167,112.661,148.167,112.661z"/>
	</g>
</g>
</svg>