<?xml version="1.0" encoding="iso-8859-1"?>
<svg
    version="1.1"
    id="Layer_1"
    xmlns="http://www.w3.org/2000/svg"
    xmlns:xlink="http://www.w3.org/1999/xlink"
    x="0px"
    y="0px"
    viewBox="0 0 512 512"
    style="enable-background:new 0 0 512 512;"
    xml:space="preserve"
>
    <path
        style="fill:#a841c2;"
        d="M405.131,512H106.869c-37.425,0-67.873-30.447-67.873-67.873V67.873
	C38.996,30.447,69.444,0,106.869,0h298.262c37.425,0,67.873,30.447,67.873,67.873v189.934c0,7.726-6.266,13.992-13.992,13.992
	s-13.992-6.266-13.992-13.992V67.873c0-21.995-17.894-39.889-39.889-39.889H106.869c-21.995,0-39.889,17.894-39.889,39.889v376.255
	c0,21.995,17.894,39.889,39.889,39.889h298.262c21.995,0,39.889-17.894,39.889-39.889V333.359c0-7.726,6.266-13.992,13.992-13.992
	s13.992,6.266,13.992,13.992v110.768C473.004,481.553,442.556,512,405.131,512z"
    />
    <path
        style="fill:#ebbef5;"
        d="M168.647,13.992h174.708v66.647c0,16.394-13.291,29.685-29.685,29.685H198.333
	c-16.394,0-29.685-13.291-29.685-29.685V13.992H168.647z"
    />
    <g>
        <path
            style="fill:#a841c2;"
            d="M313.668,124.317H198.332c-24.084,0-43.678-19.594-43.678-43.678V13.992
		C154.654,6.266,160.919,0,168.645,0h174.708c7.726,0,13.992,6.266,13.992,13.992v66.647
		C357.345,104.723,337.752,124.317,313.668,124.317z M182.637,27.983v52.655c0,8.654,7.041,15.695,15.695,15.695h115.337
		c8.654,0,15.695-7.041,15.695-15.695V27.983H182.637z"
        />
        <path
            style="fill:#a841c2;"
            d="M256,379.691c-2.887,0-5.772-0.891-8.224-2.672l-68.032-49.427
		c-19.384-14.081-29.181-38.42-24.964-62.003l14.115-78.953c1.193-6.673,6.996-11.529,13.773-11.529h146.664
		c7.726,0,13.992,6.266,13.992,13.992s-6.266,13.992-13.992,13.992H194.38l-12.054,67.423c-2.342,13.099,3.101,26.616,13.866,34.439
		L256,348.406l59.808-43.453c10.764-7.823,16.208-21.34,13.866-34.439c-1.36-7.607,3.704-14.876,11.311-16.236
		c7.602-1.37,14.875,3.702,16.236,11.311c4.217,23.582-5.583,47.919-24.964,62.002l-68.032,49.427
		C261.772,378.8,258.885,379.691,256,379.691z"
        />
        <path
            style="fill:#a841c2;"
            d="M256,442.665c-7.726,0-13.992-6.266-13.992-13.992v-62.974c0-7.726,6.265-13.992,13.992-13.992
		c7.726,0,13.992,6.266,13.992,13.992v62.974C269.992,436.4,263.726,442.665,256,442.665z"
        />
        <path
            style="fill:#a841c2;"
            d="M304.125,442.665h-96.251c-7.726,0-13.992-6.266-13.992-13.992s6.265-13.992,13.992-13.992h96.251
		c7.726,0,13.992,6.266,13.992,13.992S311.852,442.665,304.125,442.665z"
        />
    </g>
    <path
        style="fill:#ebbef5;"
        d="M339.742,247.325H172.258l-3.705,20.726c-3.301,18.466,4.239,37.194,19.415,48.221L256,365.699
	l68.032-49.427c15.177-11.025,22.717-29.755,19.416-48.221L339.742,247.325z"
    />
    <path
        style="fill:#a841c2;"
        d="M256,379.691c-2.887,0-5.772-0.891-8.224-2.672l-68.032-49.427
	c-19.381-14.081-29.18-38.419-24.964-62.002l3.705-20.726c1.193-6.673,6.996-11.529,13.773-11.529h167.484
	c6.778,0,12.581,4.858,13.773,11.529l3.704,20.726c4.219,23.582-5.581,47.92-24.964,62.002l-68.032,49.427
	C261.772,378.8,258.885,379.691,256,379.691z M183.969,261.318l-1.644,9.195c-2.342,13.099,3.102,26.617,13.866,34.439
	l59.808,43.453l59.808-43.453c10.765-7.823,16.208-21.34,13.866-34.438l-1.644-9.197H183.969z"
    />
</svg>
